<mxfile host="app.diagrams.net" agent="Mozilla/5.0 (Macintosh; Intel Mac OS X 10_15_7) AppleWebKit/537.36 (KHTML, like Gecko) Chrome/129.0.0.0 Safari/537.36" version="24.7.16">
  <diagram id="f106602c-feb2-e66a-4537-3a34d633f6aa" name="Page-1">
    <mxGraphModel dx="1273" dy="761" grid="1" gridSize="10" guides="1" tooltips="1" connect="1" arrows="1" fold="1" page="1" pageScale="1" pageWidth="1169" pageHeight="827" background="none" math="0" shadow="0">
      <root>
        <mxCell id="0" />
        <mxCell id="1" parent="0" />
        <mxCell id="Lif8JBEafslfNm7ranTe-1" value="" style="fillColor=#F6F6F6;strokeColor=none;shadow=0;gradientColor=none;fontSize=14;align=left;spacing=10;fontColor=#717171;9E9E9E;verticalAlign=top;spacingTop=-4;fontStyle=0;spacingLeft=40;html=1;horizontal=1;" parent="1" vertex="1">
          <mxGeometry x="320" y="160" width="510" height="360" as="geometry" />
        </mxCell>
        <mxCell id="0QRVZLjizYABk1ugPUcg-1" value="BigQuery" style="sketch=0;html=1;verticalAlign=top;labelPosition=center;verticalLabelPosition=bottom;align=center;spacingTop=-6;fontSize=11;fontStyle=1;fontColor=#999999;shape=image;aspect=fixed;imageAspect=0;image=data:image/svg+xml,PHN2ZyB4bWxucz0iaHR0cDovL3d3dy53My5vcmcvMjAwMC9zdmciIHhtbG5zOnY9Imh0dHBzOi8vdmVjdGEuaW8vbmFubyIgd2lkdGg9IjIwLjAwMTA0NTIyNzA1MDc4IiBoZWlnaHQ9IjIwLjAwMTA0NTIyNzA1MDc4IiBmaWxsLXJ1bGU9ImV2ZW5vZGQiIHZpZXdCb3g9IjAgMCAyMC4wMDEwNDUyMjcwNTA3OCAyMC4wMDEwNDUyMjcwNTA3OCI+JiN4YTsJPHN0eWxlIHR5cGU9InRleHQvY3NzIj4mI3hhOwkuc3Qwe2ZpbGw6I2FlY2JmYTt9JiN4YTsJLnN0MXtmaWxsOiM2NjlkZjY7fSYjeGE7CS5zdDJ7ZmlsbDojNDI4NWY0O30mI3hhOwk8L3N0eWxlPiYjeGE7CTxwYXRoIGNsYXNzPSJzdDAiIGQ9Ik00LjczIDguODN2Mi42M2E0LjkxIDQuOTEgMCAwIDAgMS43MSAxLjc0VjguODN6Ii8+JiN4YTsJPHBhdGggY2xhc3M9InN0MSIgZD0iTTcuODkgNi40MXY3LjUzQTcuNjIgNy42MiAwIDAgMCA5IDE0YTggOCAwIDAgMCAxIDBWNi40MXoiLz4mI3hhOwk8cGF0aCBjbGFzcz0ic3QwIiBkPSJNMTEuNjQgOS44NnYzLjI5YTUgNSAwIDAgMCAxLjctMS44MlY5Ljg2eiIvPiYjeGE7CTxwYXRoIGNsYXNzPSJzdDIiIGQ9Ik0xNS43NCAxNC4zMmwtMS40MiAxLjQyYS40Mi40MiAwIDAgMCAwIC42bDMuNTQgMy41NGEuNDIuNDIgMCAwIDAgLjU5IDBsMS40My0xLjQzYS40Mi40MiAwIDAgMCAwLS41OWwtMy41NC0zLjU0YS40Mi40MiAwIDAgMC0uNiAwIi8+JiN4YTsJPHBhdGggY2xhc3M9InN0MSIgZD0iTTkgMGE5IDkgMCAxIDAgMCAxOEE5IDkgMCAxIDAgOSAwbTAgMTUuNjlhNi42OCA2LjY4IDAgMCAxIC4wMDctMTMuMzYgNi42OCA2LjY4IDAgMCAxIDQuNzI3IDExLjQwM0E2LjY4IDYuNjggMCAwIDEgOSAxNS42OSIvPiYjeGE7PC9zdmc+;" parent="Lif8JBEafslfNm7ranTe-1" vertex="1">
          <mxGeometry x="220" y="120" width="45.97" height="45.97" as="geometry" />
        </mxCell>
        <mxCell id="0QRVZLjizYABk1ugPUcg-4" value="" style="shape=image;verticalLabelPosition=bottom;labelBackgroundColor=default;verticalAlign=top;aspect=fixed;imageAspect=0;image=data:image/jpeg,/9j/4AAQSkZJRgABAQAAAQABAAD/2wCEAAkGBxANDw0OEA0PDQ8PEBAOEA8NDxAPDQ0NFxEWFhYRFRgaHiggGBolGxMVITEhJykvLjEuFx8zOTMuNyk5LjcBCgoKDg0OGxAQGCsmHSUtMistKy0zLy8rLS4rKysrLS0tLSsyNy0tLS0vLS0rLS0tMjcrLS0tLSstLS0tLS0tLf/AABEIAOsA1gMBEQACEQEDEQH/xAAcAAEAAgMBAQEAAAAAAAAAAAAAAQIEBQYHAwj/xABMEAACAQIBBQkJDAgHAQAAAAAAAQIDEQQFBhIhMRNBUVRhcYGRsQcUIjJSoaLB0RczU2JjcnOTlLPS4xUkNIKSsuHwFiM1QoPC8SX/xAAaAQEBAAMBAQAAAAAAAAAAAAAAAQIEBQMG/8QAOhEBAAECAgQLBwMDBQAAAAAAAAECAwQREiExUgUTFDJBUWFxgaGxM2KRwdHh8BU0oiJCUyMkY3Lx/9oADAMBAAIRAxEAPwD3EAAAAAAADR5azpw2Dbg5OrVW2nSs3F/GeyPNt5D3t4euvX0PC5iKKNXS5TG5+4id1SpUqK5b1J9epeY26cHRG2c2pVjK52Rk02IzlxtTxsXVX0dqf8qR6xYtx/a8Zv3J/uYFXKFeXjYitL51Wcu1npFFMdEMNOrrljTm3tbfO2ypmqptbG1zOwH0hj60fFr1o/Nqzj2Mx0aZ6IZadXXLLoZyY2n4uMr/AL890/nuYTZtz/bDOL1yNlUtxk/uhYum0qsaeJjv3W5VH0x1eieVWEonZqetOLrjbrdzkDObDY9WpycKqV3RqWVRLhW9Jcq6bGlcs1W9uxu271NzZtbo8nqAAAAAAAAAAAAAAAAAHM58ZclhKUaVKWjVrX8JbadNbZLgbukungNrDWorqznZDVxV2aKco2y8ybOm5jNwWRsTiI6dLD1KkfKStF8zdk+g86rtFOqZelNquqM4hh4vDVKMnCrTnSmtejOLi7cK4VymVNUVRnEsaqZpnKYfBsyYqtkVVsCrYFWFVYE06soSjOEnCcWpRlF2lGS3094kxnqkictcPXcyM5f0hScalliKNlUtqVSL2VEujWt586OZfs8XOrY6li9xka9sOlNd7gAAAAAAAAAAAAAAADy/ugVtLHTj8HTpw8zn/wBzqYSMrbl4uc7jXZs4COKxdCjPXBtymuGEYuWj02S6T0vV6FEzDzs0adcRL2CEVFKKSSSSSSsklsSOO7DS545MhicHWulp0oSrU5f7oyirtczSs/6Hth65prjteOIoiuiex4+2dZyVWwKtgVYVVgVbIKtgbnM3KDw2Pws09U5qhNcMKjUdfIpOL/dPK/TpW5+L1s1aNyJ8Pi9uOS6wAAAAAAAAAAAAAAAA8nz4f/0MT/xfcwOthvZR+dLk4n2s/nQ12RMovCYijXS0lCXhRW2UGnGSXLZvpsZ3KNOmaWFuvQqip7Bk/H0sTBVKNSNSL8l64vga2p8jORVRVTOUw69NdNUZxLns+M4aVChVw0JqderF03GLvuUJK0pS4HZuy26zYw9maqoqnZDXxN6KaZpjbLyxs6TmqtgVbCqsCGwKtkFWwr75Mf6xhvp6P3kTGvmz3LRzo736BOM7IAAAAAAAAAAAAAAAA8mz5/1DE/8AF9zA62G9lH50uTifaz+dDQNnu8FbkVQCrYFWwqGBVsCrZBVsKq2B98mP9Yw309H7yJjXzZ7lo50d79BnGdkAAAAAAAAAAAAAAAAcjl3Mp4zEVcR30qe6aHgbjp6OjCMdumr+LwG3axWhTFOTUu4XTqmrS8mv9zh8eX2b8w9OW+75/Z58i97y+6Pc3fHl9m/MJy33fP7HIve8vuj3NXx9fZvzBy33fP7HIve8vuj3NHx9fZvzBy33fP7LyL3vL7o9zN8fX2b8wct93z+xyOd7y+7g8bQ3KrWpX0tyqVKela2loycb23thuUznES06oymYY7ZUVbAq2FVbAyMlv9Yw309H7yJjXzZ7mVHOjvfoQ4zsAAAAAAAAAABWpUUE5Skoxim3KTSjFcLe8WIz2JM5bXI5Wz7pU244em67WrdJNwpX5N+Xm5zbt4OqddU5NS5jKY1Uxm53EZ646eypTpclOlFr0rmxGFtx0NacVcnpY7zwyhxp/VUPwGXJrW76pym7veiHnhlDjT+pofgHJrW76nKbu96KvPHKHG39TQ/AOTWt31OU3d70Q88socbf1OH/AAE5Na3fU5Rd3vRV555R42/qcP8AgHJrW76nKLu96KvPTKPG39Th/wAA5Na3fVeUXd70Q89Mo8bf1OH/AADk1rd9TlF3e9EPPXKPHH9Th/wDk9rd9TlF3e9Ghr1pVJTnJ3lOUpydkryk7t2Wraz2iMoyh5TOc5y+TYRVsKo2BVsDIyX+0Yb6ej95Exr5s9zKnnR3vf8AGVHGN07O6PmcfdrtWtKicpzdy1TFVWUsLvqfleaPsONy/Eb/AJR9GzxVHUd9T8rzR9g5fiN/yj6HFUdS0cbNbbS51Y9KOE71POyn87GM2KZ2MyhiFPZqe+mdjDYyi/GrVPU8K7c0vsbTzAAACJNJNt2S1tvUkgPLs7M45Y2bpwbjhoPwVs3Vr/fL1L1nVsWItxnO1yr9+bk5Rsc6zYa6GwKtgUbAq2RVWwKtgVYVDAq2QVbAq2FVbAq2BVsDJyV+0Yb6ej95Exr5s9zKnnR3vfcf4nSj5XhP2HjDvWOc1x8820XAgipjNxaadmi0XKqKoqpnXBNMTGUtvQq6cVLr5GfV4e/F63FcfkufXTozk+h7sQABy/dAyk6OGVGLtPENwfDuS1z67xXNJm1hKNKvOehq4u5o0ZR0vNGdNzFWwKtgVbAq2RVWwKtgVYVVgVbIKtgVbCqtgVbAq2QQBlZK/aMN9PR+8iSvmz3MqedHe99yh4nSj5XhT2HjDvWOc1tz51touRUNkVFyDMyXU1yjwq65/wC+w6/BF7Kuq3PTr/Pzoa+Ip1RLZHfagAA8z7oeK08Yqd9VGlGNuCcryfmceo6eEpyt59bmYurO5l1OWbNpqqtgVbAq2RVWwKtgVbCqsCGyCjYFWwqrYFWwKtgQQANtmng3iMfgqa+GhUfzIPTl5ovrPO7Vo0TL0tU6VcQ9uylLwYrhd+pf1Pk+Fq8rdNPXPp/67uHjXMtc2cFtouYqi5FRcg+mFnozg+VLoer1mxg7mhfoq7fXUxuU50TDeH2DmgADxvOOvumMxc/lpxXNF6C80UdmzGVuI7HGvTncme1rGz0earYFWyKq2BVsCrYVVgQ2BVsgq2FVbAq2BVsCpAAAeqdzHNyWHhLG1ouNStHRpQkvChQum5PgcrLoS4bGhirsVTow38NayjSl02MracnbYtS9p8Xj8Rx13ONkaodm1Ro0se5pPVDZM1VuYqi5MxFyZq6GnK6T4UmfcW69OiKuuM3KmMpyWM0APDcTU0p1JeVOUuttnciMoycOqc5mXxbKirZFVbAo2BVsKhgVbAzMJkfFV0nSwtepF7JRpy0H+9a3nPOq5TTtlnTbqq2RLJeamUOJVfR9pjx9veZcRc3UPNTKHEqvo+0cfb3l4i5uqvNPKHEqvo+0cfb3jiLm6q80socRq+j7Rx9veOIubqP8I5R4jW9D2k4+3vHE3N0/wjlHiNb0PaOPt7xxNzdffC5j5RqtLvXc15VWpTjFc6TcupEnEW46VjD3J6Hb5s9z2lhpRrYmSxNWNpRglbD05cNnrm+V2XJvmrdxU1RlTqhtWsLFOurXLp8bi73jF879SPmcfwhExNu1PfPyj6upas9NTAucRtIuQQRUXJmqCKi5jmN7gnenT+al1aj7LAznhqO6HMvRlXL7m28wDwiorNrgbXUzuQ4cqNgVbAq2BVsKqwMzI+Sq2OqqjRjd7ZSeqFOPlSe8jC5ciiM5Z0W5rnKHqWQsz8LgUpyiq9Za3WrJWi/iR2R7eU5d/FTMZzOUOlaw1NPRnLdzxsVsu+bUjkV8KWadVOc/na3IsVSp3+vJfWjz/VqdyWXET1nf68l9aH6tTuScRPWd/ryX1ofq1O5JxE9Z3+vJfWh+rU7knET1nf68l9aJ+rUbknJ560fpBeS+tD9Xo3JOTz1qyyjwQ62edXDG7R8ZZRh+uWNWxMp7XZcC1I51/G3r2qqdXVGx7UWqadj4XNR6IuRVbkEGKhFVuQRcit7k73qHM+1n2HBv7Wju+bmX/aSyTeeQB4jlmlueJxUPJr1UubTdvMdq3OdET2OLcjKuY7WC2ZMVWwKtgVYVNKnKpKMIRcpzkoRitspt2SXSyTOUZyRGeqHtObuR6eTcMqas5u0q1RbalTk5FsSOLisTERNyrZDsWLOjEUxtWrVnN3ezeW8j5TEYmu/VnVs6I6nRooimNT5muzAAACLkEXIqGyKi5BVsxzVBFRcmaoIIuTNUNmKobIqrZB0WDjanTXxV2H22Cp0cPRHZHo5V2c65732Np5gHkmfuG3LH1nvVYwqrmcdF+lCR1cNVnbhysTTlclzjZ7vBVsCrYVDA6nubYFVsdujV1h6cqi4N0dox80pPoNbFVZUZdbZwtOdefU9MyhPWo8Gt858jwrdmaotx3u3Yp1ZsM5DYAAACCKi5BW5iqLkVFyCCKgioMVRcmYrciouRUXIqacdKUY+U0utmVuiblcUR0zl8UqnRiZdMlY+9iMoyhxklADge6lgtWGxKWxyoTfP4UOyfWb2Dq20+LRxlOyrwefNm80VWwqrAq2Qd73JF/mY5/FodtT2GnjNlPj8m5g9tXh83a4z3yXR2I+L4Qn/cVeHpDt2uZD4Gk9QCLkEXIqLkVFyCGyZqrcxVFyZiCKgiouRUXIIbMVVbIqCKzsj0tKppb0Ffpepes63A1jTv6c7KY851R82tiq8qMutvD6xzQABg5cybHGYeth5atOPgy8iotcZdDSM7dehVFTC5Rp0zS8RxVCdGc6VSLhOnJwlF70l/e07ETExnDkTExOUvgyohsCrZB33cj8fH/Nw/bVNPGbKfH5N3B7avD5u0xnvkujsR8Xwh+4q8PSHbtcyHxNJ6IuRUXIKtkVDZiqLkEEVFyZqgiouYiLkVVsiouQRcioIqCDocnYfc6aT8aXhS5HwH2fBuFnD2IirnTrn6eDlX7mnXq2Mo6DxAAADmM8M0449brTcaeJiraT8StHejO2x8D7d7YsX5t6p2Ne/Yi5rja8synk6vhJaFejOi72TkvAl82WyXQzo010166Zc6qiqjnQw2zJiq2B3/AHIvHx/zcP21TSxmynx+Tdwe2rw+btcb75Lo7EfF8IfuKvD0h27PMhjmi9UNkVFyCLkVFyKrcmYi5jmqLkVFyZiLkzVDZjmqGyZqi5MxBFEr6krvgWtsRE1TlGuSdTa5Oyc01OorW1xjy8LPouDeCqoqi7ejZsj5z9GlfxETGjT8W1PoWiAAAAABWcFJNNKSe1NXTAwZZEwjd3gsM3wuhSb7DPjK+uWHF0dUI/QOD4jhfs9L2Dja96Ti6N2GRhMn0KGk6NClR0raW5U4U9K17Xste19ZJqqq2ysU007IYeO98l0diPluEf3NXh6Q6FnmQx2zReqLkFbmOaoIqGyK21J0dGN9yvZXvo3vY+mtVYLi6dLQzyjqaNUXc5yz81tKh8l6B6aWA/4/4scr3b5mlQ+R9AmlgOu3/EyvdvmaVD5H0BpcH9dv+K5Xu3zRpYfho+gNPg/rt/xMr3b5ieH+R9ARVwfM5Rxf8TK92+b7d7U/g4fwxNnklj/HT8IefGV70ne1P4OH8MRyTD/46fhBxte9J3tT+Dh/DEckw/8Ajp+EHG170rwpqOyKjzJI9aLdFHNiI7mM1TO2VjNAAAAAAAAAAAAanHe+S6OxHy/CP7mrw9Ib1nmQxrmg9kXIIuRUEVBiqLkzFWyKi5FRciouYi1HxofOj2npZ9rT3x6pVzZdOffOMAAAAAAAAAAAAAAAANPj/fJdH8qPleEv3NXh6Q37HMhjXNB7IuTMQRUEVFyKi5BDZirIwWEdZvXaK2v1I3sDgasVVOvKmNs/KHldvRbjtZ8skwtqlJPhdmdirgOzNOVNU5+H0asYurPXENTiKLpycZbV1NcJ87icPXYuTbr2+va3qK4rpzhWj40PnR7TCx7Wnvj1Wvmy6g+/cYAAAAAAAAAAAAAAAAajKUbVHypP1eo+X4Vp0cRM9cRPy+Tfw850MS5zc3ugiouY5iLkVVsiouQRcit3kdrctW3Sd+f/AMsfWcDTTOG1bc5z/O7JzsVnxjOOq1mny41pQ4dF35r6vWfM8PTHGUR05T66vm38HnoywcLHSqU18aPVfWcnC0TXfopjrj1bNycqJnsdMfeOOAAAAAAAAAAAAAAAAMXH4fdI3XjR2cq4DncI4Sb9vOnnRs7ex7WbmhOvY0zPlZ1OircxEXIqGyKhsxVFyCCK++ExcqTutae2L2M3MHjbmFqzp1xO2PzZLyu2ouRrZ8ssK2qm78r1HXq4ep0f6aJz7Z1NaMHOeuWrrVXOTlJ3b/uxwL16u9XNdc65blNMUxlDZ5IwjX+bJb1ork8o73A2CmP9euP+v1+jTxV3P+iPFtT6FpAAAAAAAAAAAAAAAAABi4vBRqa14MuFbHznOxnB1vEf1Rqq6+vve9q/NGroaqvhJw2xuuGOtHzuIwN+zzqdXXGuPt4t2i7RVsljXNLN6ouRUEVBAAAfWjh51PFi3y73We9jC3r/ALOmZ7ej47GFdymjnS2mEyWo2lNqT8leKufhPoMHwNTbnTvTnPV0ff0aV3FTOqnU2R3GoAAAAAAAAAAAAAAAAAAAAA+NXC05+NBPl2PrRrXcHYu8+iO/p+Ma3pTdrp2Sxp5JpvY5R6U15zQr4Ew9XNmY/O17Ri6425Pi8jcFTrjf1mtVwDHRc8vuz5Z7osjfK+j/AFEcA9dzy+5yz3X0hkiC2yk+pI96OA7Ec6qqfh9GM4uvoiGTSwNKOyC55eF2m7a4Ow1vm0R46/V41X7lW2WQbryAAAAAAAAAAAAAAAAAAAAAAAAAAAAAAAAAAAAAAAAAAAAAAAAAAAABcCNICNMCNMBugDdAG6ATpgNICbgSAAAAAAAAAAAAAAAAAAKNgVbAo2BVsCNICNIBpANICykBKYF0wLJgXTAkAAAAAAAAAAAAAAABDiBRwAq4AVcAI0AI0AGgA0AJUALKAFlAC6iBYAAAAAAAAAAAAAAAAAAAACwEWAWAWAWAWAkAAAAAAAAAAAAAH//Z;" parent="Lif8JBEafslfNm7ranTe-1" vertex="1">
          <mxGeometry x="40" y="30" width="63.74" height="70" as="geometry" />
        </mxCell>
        <mxCell id="0QRVZLjizYABk1ugPUcg-9" value="Looker" style="sketch=0;html=1;verticalAlign=top;labelPosition=center;verticalLabelPosition=bottom;align=center;spacingTop=-6;fontSize=11;fontStyle=1;fontColor=#999999;shape=image;aspect=fixed;imageAspect=0;image=data:image/svg+xml,PHN2ZyB4bWxucz0iaHR0cDovL3d3dy53My5vcmcvMjAwMC9zdmciIGlkPSJzdmc4OTgwMSIgdmVyc2lvbj0iMS4xIiB2aWV3Qm94PSIwIDAgMjA4LjA1NjU1IDMzNC42MTMxNiIgaGVpZ2h0PSIzMzQuNjEzMTZtbSIgd2lkdGg9IjIwOC4wNTY1NW1tIj4mI3hhOyAgJiN4YTsgIDxkZWZzIGlkPSJkZWZzODk3OTgiLz4mI3hhOyAgPGcgdHJhbnNmb3JtPSJ0cmFuc2xhdGUoLTQuMjQ2MjUyNCwxNS42NzE5MTEpIiBpZD0ibGF5ZXIxIj4mI3hhOyAgICA8cGF0aCBpZD0icGF0aDkxODAyIiB0cmFuc2Zvcm09InNjYWxlKDAuMjY0NTgzMzMpIiBkPSJtIDQwOS4yMjI2Niw0MTkuMDk5NjEgYyAtMzYuNjA4MTEsMCAtNzIuMDc2NjcsNS4wNzUzIC0xMDUuNzUzOTEsMTQuNTMxMjUgbCA0OS4wMzUxNiwxMjAuMDQxMDIgYyAxOC4yNjE3MiwtMy45Mzg5OSAzNy4yMjE5NiwtNi4wNjgzNiA1Ni43MTg3NSwtNi4wNjgzNiAxNDYuOTM1MTQsMCAyNjQuNjc3NzMsMTE3LjczNDc3IDI2NC42Nzc3MywyNjQuNjY5OTIgMCwxNDYuOTM1MTQgLTExNy43NDI1OSwyNjQuNjY5OTYgLTI2NC42Nzc3MywyNjQuNjY5OTYgLTE0Ni45MzUxNiwwIC0yNjQuNjY5OTEsLTExNy43MzQ4MiAtMjY0LjY2OTkzLC0yNjQuNjY5OTYgMCwtOTkuMTg3NjMgNTMuNjg5ODMsLTE4NS4wMDU5NiAxMzMuNzU1ODYsLTIzMC4zNDc2NiBMIDIyOS42MjY5NSw0NjIuNzUgQyAxMDMuMDI0Nyw1MjguMjI0NzQgMTYuMDQ4ODI3LDY2MC41MDUyMyAxNi4wNDg4MjgsODEyLjI3MzQ0IGMgMi4zZS01LDIxNi4zODM3NiAxNzYuNzkwMDYyLDM5My4xNzM4NiAzOTMuMTczODMyLDM5My4xNzM4NiAyMTYuMzgzNzMsMCAzOTMuMTgxNjQsLTE3Ni43OTAxIDM5My4xODE2NCwtMzkzLjE3Mzg2IDNlLTUsLTIxNi4zODM3OCAtMTc2Ljc5Nzg3LC0zOTMuMTczODMgLTM5My4xODE2NCwtMzkzLjE3MzgzIHoiIHN0eWxlPSJjb2xvcjojMDAwMDAwO29wYWNpdHk6MTtmaWxsOiM1OTg2ZjI7ZmlsbC1vcGFjaXR5OjE7c3Ryb2tlLXdpZHRoOjMuNzc5NTM7c3Ryb2tlLWxpbmVqb2luOnJvdW5kOy1pbmtzY2FwZS1zdHJva2U6bm9uZSIvPiYjeGE7ICAgIDxwYXRoIGQ9Im0gMTg5Ljk0MzM2LDg2LjI1IGMgLTk1LjEzMDMzMSwwIC0xNzMuMTc5Njg4LDc4LjA1NTIyIC0xNzMuMTc5Njg4LDE3My4xODU1NSAtNmUtNiw5NS4xMzAzMyA3OC4wNDkzNTMsMTczLjE3OTY4IDE3My4xNzk2ODgsMTczLjE3OTY4IDkuMDE2MTgsMCAxNy44NzU4LC0wLjcwODMyIDI2LjUzMzIsLTIuMDU4NTkgbCAtMzQuODI4MTIsLTg1LjI2NTYyIGMgLTQ0LjE1NzMsLTQuMDg2NjkgLTc3Ljk1NTA4LC00MC41MDcwNSAtNzcuOTU1MDgsLTg1Ljg1NTQ3IDAsLTQ4LjE1MDM5IDM4LjA5OTYyLC04Ni4yNTU4NiA4Ni4yNSwtODYuMjU1ODYgMTMuMTU5NzcsMCAyNS41NTg4OCwyLjg2MjQ2IDM2LjY0NDUzLDcuOTgyNDIgbCA2NC41NTQ2OSwtNjEuOTE5OTIgQyAyNjIuNjA4MzcsOTguNTMzOTEgMjI3LjYyOTI5LDg2LjI1IDE4OS45NDMzNiw4Ni4yNSBaIG0gMTM4Ljg4ODY3LDcwLjE2MjExIC02My40Mjc3Myw2MC44MzU5NCBjIDYuODc2MzgsMTIuNDI2NzggMTAuNzg5MDYsMjYuNzg4MTUgMTAuNzg5MDYsNDIuMTg3NSAwLDIxLjc2NzEyIC03LjgwNDE1LDQxLjQ2NTQgLTIwLjc4NTE2LDU2LjUzMzIgbCAzNC41MjM0NCw4NC41MTk1MyBjIDQ0LjE3Mzg3LC0zMS40ODc1MSA3My4xOTE0MSwtODMuMDc4OTIgNzMuMTkxNDEsLTE0MS4wNTI3MyAwLC0zOC40ODM1NSAtMTIuNzgyLC03NC4xNjUzMiAtMzQuMjkxMDIsLTEwMy4wMjM0NCB6IiB0cmFuc2Zvcm09InNjYWxlKDAuMjY0NTgzMzMpIiBzdHlsZT0iY29sb3I6IzAwMDAwMDtvcGFjaXR5OjE7ZmlsbDojNmY5OGY0O2ZpbGwtb3BhY2l0eToxO3N0cm9rZS13aWR0aDozLjc3OTUzO3N0cm9rZS1saW5lam9pbjpyb3VuZDstaW5rc2NhcGUtc3Ryb2tlOm5vbmUiIGlkPSJwYXRoOTE3OTgiLz4mI3hhOyAgICA8cGF0aCBpZD0icGF0aDg5OTI4IiB0cmFuc2Zvcm09InNjYWxlKDAuMjY0NTgzMzMpIiBkPSJtIDQwNi4xMzY3MiwtNTkuMjMyNDIyIGMgLTU4LjgxNTQ3LDhlLTYgLTEwNy4xMDM1Miw0OC4yODgwNDUgLTEwNy4xMDM1MiwxMDcuMTAzNTE2IDAsMTguNDk0NDUxIDQuNzgxMDEsMzUuOTQ1MDE3IDEzLjE1NjI1LDUxLjE4MzU5NCBsIDQ0LjMxMjUsLTQyLjUwMzkwNyBjIC0wLjQ3NTY3LC0yLjgyMDc3NSAtMC43NzUzOSwtNS43MDc1NjQgLTAuNzc1MzksLTguNjc5Njg3IDAsLTI4LjE3NjM4IDIyLjIzMzc4LC01MC40MTAxNTI1IDUwLjQxMDE2LC01MC40MTAxNTY1IDI4LjE3NjM4LC00ZS02IDUwLjQxMDE1LDIyLjIzMzc3MDUgNTAuNDEwMTYsNTAuNDEwMTU2NSAwLDI4LjE3NjM4MSAtMjIuMjMzNzgsNTAuNDEyMTEzIC01MC40MTAxNiw1MC40MTIxMDkgLTUuMDY4NjksLTEwZS03IC05LjkzNDE3LC0wLjc0NTYzMSAtMTQuNTIzNDQsLTIuMDg5ODQ0IGwgLTQzLjM2MTMzLDQxLjU5MTgwMSBjIDE2LjczMjIzLDEwLjg0Nzk1IDM2LjYxMTIzLDE3LjE4OTQ1IDU3Ljg4NDc3LDE3LjE4OTQ1IDU4LjgxNTQ5LDEwZS02IDEwNy4xMDM1MSwtNDguMjg4MDQgMTA3LjEwMzUxLC0xMDcuMTAzNTE2IDAsLTU4LjgxNTQ4MyAtNDguMjg4MDIsLTEwNy4xMDM1MjMgLTEwNy4xMDM1MSwtMTA3LjEwMzUxNiB6IiBzdHlsZT0iY29sb3I6IzAwMDAwMDtvcGFjaXR5OjE7ZmlsbDojZDZlM2ZiO2ZpbGwtb3BhY2l0eToxO3N0cm9rZS13aWR0aDozLjc3OTUzO3N0cm9rZS1saW5lam9pbjpyb3VuZDstaW5rc2NhcGUtc3Ryb2tlOm5vbmUiLz4mI3hhOyAgPC9nPiYjeGE7PC9zdmc+;" parent="Lif8JBEafslfNm7ranTe-1" vertex="1">
          <mxGeometry x="160" y="120" width="30" height="48.47" as="geometry" />
        </mxCell>
        <mxCell id="TSmfEReDqsmMl8i93ZQt-1" value="" style="shape=image;verticalLabelPosition=bottom;labelBackgroundColor=default;verticalAlign=top;aspect=fixed;imageAspect=0;image=data:image/png,iVBORw0KGgoAAAANSUhEUgAAAOEAAADhCAMAAAAJbSJIAAAA/1BMVEUaDjb///8AACQZDDUFACoAACgAAC4AACYAABwVBzMMACzq3v8JACn/+v8AACMUCDEtJEX59f+3rMwgGDrw6/lZUG9RR2rYy/ARAC/07f+jna8AACB1b4exq7wAABoAABfj1f1mXH1FOV7i2/Dg1vE9NVXt4/52bYvHv9WGe6DPxuLNweM3K1KJg5cTADH89/+soMWWia7v7vEAABIiFj8AAAC+usaSi6Sfl7FoX3x7dIvd2+FcVm7Cv8qJgpenorLSzOFMRV9QSWPa198gEEBDPFaZlKW6s8lgVnhqY3swJEyRiKV/c5crJEF3coWekreypswZADuro74yK0fBt9QPqVYqAAAIuklEQVR4nO2Ya1fiSBOAk3QYkoYQIhfThrsQEBEUGAEVQVEUdXTE+f+/5a3uJBAcwT3vhz37oZ5zdpbcOnlSnapqJQlBEARBEARBEARBEARBEARBEARBEARBEARBEARBEARBEARBEARBEARBEARBEARBEARBEARBEARBEARBEARBEARBEOQ/BVEUhWzuUR1N0xzq7VUTSoiE2KsE+6L25qWSGtqhJxKR9RFbSURCJ9uqvj4RBtocR1cScb7H3Li3Im3sUvVPN98i2M7lcnehUwmVrk4m+YPrG5PCFslc5MLc6t4lHqN73Q6P1h7dSKo/mPlUr4+iq2eu1evl1Oo+7dooGTjqyVG93A8/rf1RrmckIpmtUXnNqAxK+tNq+/HD3rj5FiIZWb5UQ8Ort+ddmdPN3yYkoudlI4Scp8T8YRmW1elYlpWe5WvhONVmh/lRwhQb8azM0o9KMOwFY9NkEDdCh+6fiz4VGzTjuu6Rth7G7C9d9w+8jsgotqIUi+23TYlm90s++8dnT/RbQaKcy/I8NHrk5lIO6OZA51z8BCVD/BCGacuS/d2dWXatqA4MK50eRMSrjVc6LpvVVP9QjrHGytC+OWSu27gT3wfNVEGxFbwLifSO3FhsjxuWQc31ibkl2zf0nUul4/a3ivS2K1/er4OtRy9lozt5rIzyXdkYUYnk5gNg2rHGJ/zHQpe4oXHANwYP6XRnVgsuJ2SUP2TMeBAm3NBdWan1DcPKWRMOVjPxlWG1Fjxs9JHF1ob7R2vaRBjun4mtU1Dd65vfhDAyl+Vzcz1J1VuYlAsnGlecxTinwQEaBZyJYRwU+S/INNxQfirAhvJjkWbG3FkNR5XbB4tZy0IQQ8aGxS8MIZVIz+DV5G9HGFbdvZT3sGq2GQsZHttO1IdPFm543OK7FOUFwlmP7zbUf83k7mvoS1KuZXncI+JpUyJXif/sPBhG/E1hWBFJ1XQGRmcamuRETR0YrFOJrgytrHgBm7OUhzFShygui0EMY+6zuK/e33M3DDejJAy9WaPTt1Lp7ZsYJnKyPGubVFXbvuEJ7Oh5V60jS9rccJUkPUPxO1KTrfSP8F3sXsNKNyAngCGbLhk7zNKvDCVSLDOXtagwbMKnx8rwXoh26saaz9V/YChFXkql36mdJYMUx7J8krAXr6/BRRnZkK/bCt24bodh5bOhpIwYS19RMLTY4V3DF/s0S8U4TtNlz1HPMAWRq2YjJFqHaJZHIUM9SgXm/2Nov0M+7FMNKsK5V3PNH5Bg5PHFnaPR3TGME0DvDWGWFjYG1X+B1bXqGToZ/inC9Ps7hpJUOIKioJvCsFaD1PMnqWWqMff0Zz00S1tPLcETISFDuLkd5bN0d0lM8DzTk9QrQ+7eekGJZkS1MGbzW2mVib8wbMV109R/DSzWuXA2R7WHaXZAiTD8UazDGQuFfGWoPoJa0vYMnSx8jXv34LknKWvDUlAP3VO6NqRE183UGdTEx53lwk6BTU6BpgIm69wXWFf885ugI/nb0HrIc6ZWuvP5uYk6ZCxv+4ZmQXyK6hezVEzPas03tJUyZBhIo80aVb8wZKdqYLh/+sb5DdXibXfnFnntyrNfBcfp8fzyy789Na/mMx5GuXtHtxpCT8O7mrQ8vf/0FqFfYenlytCuTRl7SClfxZAbJv1Z2iaFU55EWTYqhQxj+6ceey/twHBF7Hd/5yQlKQjd+Jozh7C9Bk0FUbXi08VY7sizO3ObYZdjpa1h4nNB0lMPjA387xCSUAT6F2v58wtD5wU+Pck3tCVd4nXipSdtGB4rPa3A8RKFMNznwL8vyu6vkPczIcbFcByUCBT57hXdYmjkrq6uRjPLOuj9PewhS4/oyhC+Ksu1you/DElxz2XDiBQYSrTWZENJ/2T4RbUoZzKZ0XGp9BKRdlKcyxu8Cx0STNYPaAZy6hZDueVQWqjL6U7r013Iz6XFpn19bUgKfM/R4WdDpwL1MKuuDaFfm7b4/78zrCmURiHPHNd2xpAXBvng+kRwDTlnzqepnfrw4tYW7c5WQ14PSa/R6UyJeALdfw47WjeYUU9Ia0OpnWpAnx30qH6PSBRInuxPkYQMJeqth741hLPsPgTxtCjtILqAfFl0EoKfkGsuk7ZkqufjWydumvHeNczS222z1Kv4yijNrAseRJLsJ6hp0kR/AI1aI0HChpCf+VLCN0xSGN6OOCMoDNWMKoUN/T5qw9BORHz4l7iu+Aok2lJlR1tKIpBnDoJ3YMM3abxGCYHFUndeeW8/ncBicNzelmk8Q0IeLEus+iKDab31/v5Un4LzoUivIUMpWg/WGfS+OazctfvZ4SHsueA1Lmwo/W34mA147JOQIUnwIKrb+1L1qrsq8zy15CHXpPT2iVgGdrq8WqTft1YLv2ujtcu0AasH/WPagfYNMhBE8CEpPs2wIekNmWeoDS3GYCUB/7jVrBOsD7calkruCisbD3dtSgYKRn1rsuGLd1Ba1Uv1FZwWKoFFk+Gvbs9vgqtJG0KbXxt2ZN+QKHNYbdVs+2YKBdIwOpBSBrb3XmCN32FBy2onG160lSWsIAXVZTYhjtHHQ1bdNHyBLxSeLVp2YyFYlrfppdh+RZxMpFMI8dZkQ1LXk8nVulibqfkkP1KhGCYXk/FsNs0vUuuuTb+YTOqrhW57eDB58h7d7h8MJyObSLXFsjGdNpb1D+onTLs1GQ7awSukN8PhNTw0SWae95rNxvLoXvfH1yvPb0cbadbOvr29gAEslMO8tUw4+ezsqOXfnB/Obm3bSELT1NC27miaOFmPakVAi4bvGdG00HTQNC04qGtiGNL2r1JWTvxQqGO1HU38zUKPOwU4seCs/yoHh5zNXgD2iAJvaxvo3nOuTobTtH/yxygEQRAEQRAEQRAEQRAEQRAEQRAEQRAEQRAEQRAEQRAEQRAEQRAEQRAEQRAEQRAEQRAEQRAEQRAEQRAEQRAEQRAEQZB/gf8BDqA2q07YC/0AAAAASUVORK5CYII=;" vertex="1" parent="Lif8JBEafslfNm7ranTe-1">
          <mxGeometry x="230" y="30" width="70" height="70" as="geometry" />
        </mxCell>
        <mxCell id="TSmfEReDqsmMl8i93ZQt-2" value="" style="shape=image;verticalLabelPosition=bottom;labelBackgroundColor=default;verticalAlign=top;aspect=fixed;imageAspect=0;image=data:image/jpeg,/9j/4AAQSkZJRgABAQAAAQABAAD/2wCEAAkGBxAPEBUPDRAQFhAPFRUPEBUQFxIVDxIVFRUYFhURFRcYICggGBolGxgVIjEhJSkrLi4uFx8zODcsNygtLisBCgoKDg0OFw8QFTcdHR0rLS0tKystMi0tLSstLS0tLS0rKystKy0tLS0tKzUrKy0rLS0rLS0tKystLS0tLSstLf/AABEIAKgBLAMBIgACEQEDEQH/xAAbAAADAAMBAQAAAAAAAAAAAAAAAQIEBQYDB//EAD4QAAICAQIDBgQEAwYFBQAAAAABAhEDBCEFEjEGE0FRYXEUgaHwByIywYKR8RUjQlKx4TOSosTRJCZEcnP/xAAZAQEBAQEBAQAAAAAAAAAAAAACAQADBAX/xAAmEQEBAQACAgEDAwUAAAAAAAAAARECAxIxQQQhUSLh8AUyYXGh/9oADAMBAAIRAxEAPwD50kUiUUkeuuykhpCS+/MpINI0i0tvuyUiktg0opL78fctLx/r7kpbdfl+5SW3X5fuc6cUl/Tx9/vyKQktv2/f78ikCnFIpEotHOlFIaBDQacNDBDQSCQxgFQAAZioTKEyolkspiZYiWSy2QxQahkstkMcGoZMlvVr33r3LZElvV+PXevc6QKlrerXle9e5Fb1fz8Pctrer+e9e5Nb9fnvXuOBUV9sivtl18vcihwaVE0USOAkkqiRIaKRKKRKqkUkSikGqpItEL6lr6gpxSW37fuUvtfuSunqUvqClFpbff8AP78ikSunr9/7lI504tFohFoFOKRSJRSBShooSKCQGIZFAABGAhsRWSyWWyWWIkllMljg1DJZTJY4FQyZLfrt5/uUyZVfp5+nnQ4FQ0r67ef7k1v128/3KdX128/Tzonx36HSDUV5kr1K9yV6jgVJJXuSOCkkokQmil/QkpEqqX9CkQikGrFr6lr6/Q80WgUotV8/oUq+f0IRSBTj0XT1+np+5SJRSBTi0WjzR6I504pFIhFIFKKRRKKQSMYgIpgAExgJgIrBksbJZYhMljZLHBqWQy2QxwKlkyq/GvrXsUyGdIFS6vxr617E7Xv0+o2SxwKn3+hK9Rsljg0vcn3GxMcFJJTEIQUiCkRlIpEopBpKRSIRTkkrbSS6t9A0o9EUjW5eL447R5pe2y/mzyXHY+OOXyaBV8pPluolIwNJxLFkdKVSfhLZ/LwZno510ll9LRSIRSBTj0RSITKQKUUhkoYSXYEhZFWIVhZmOxNiAzAQEsUShksbJYoKWQymSxwKlkMpkMcGkyGZWi0c88+TGt+rb/TFebN5Hssq/Nmd+kdv9Tn2fU9XVc58vufX9P2dk3jHLslnRazsvOKvFPma/wALXK37O6Odkq2fVbO+q9Dr09/X2zeF1z7ern13OUxLJZTJZ6I4UmIGISApEjRmi0NEopBqwSmkrfRdTTavUSyPf9K6Lw936mdxCW3Kmujk7aXQ1nKTxWrxaHNLHPNDFllixNLJkjCTxY2+inJKo36mM4HQ8K7Q6nTafLo8c09LqnefG0vzbJOpdYtpJbeSNXrNIo1ODcsUv0y2tOv0TXhJeXj1RrwoWMHG3FqUXut14/6m44NxF2sWV3e0JPr/APV/+TV8ocv+wLwaW8bsdiikYuizc+OMvFrf3Wz+p0fY3gnx+sx6d2se+TK11WOPVL1baX8Rwsevyma8uEcB1esv4XT5MiWzkqjjT8ueTUb9LNpqewnE8ceZ6VtLd93PFKS/hUrfyTN3207aZMOR6DhbWHBpv7qUsaSk5R2lGP8Alint5tp/Pm+HdseIYJqcdVllTtxzSeSEvRqXT5Uw5El537xp5RcW4yTUk6aaaaa6pp9GFnedu8uk12kxcRwSxR1L5Y58SlHvWn+V3Hq3GS2dbxfscfwnhOo1c+70uKU5Ld1SjFecpPZfMNh8eezb9mGM6vP+HPEoR5ljxS8eWGRc/wD1JL6nLZ8UscnDJGUZwfLKMk1KL8mn0JYU5y+qkDd8D7Ja3Wx7zBirH0U8jUIOvLxfulR6cZ7F6/SQeXLiUscd5SxSU1FebWzS9aonjW8+O5rQCs2PBOCZ9bKcNMouWOPeS5mo7XW3mzacL7CcQ1ONZYYowhJKUO+lyykn0ajTa+dFka85PdczYmza6js5rMeoWklp59/PeEVTUl/mUlty+t7eNG3y/hxxKMOfu8TdXyRyR7z23pX8yyDefGfLkWyWy82OUJOE4uMotxlGSalFrqmn0ZuOB9ktbro8+nw/3fTvMjUMbryb3l8kxSNeUn3rRMlnS8Y7C8Q0sHkyYVPHFXKWGXPyrza2lXrVHMrfZbt7Kt22+iQpA8pfSWSzr9F+G/E8sFPuseNPdLNPln/ypOvZ0zR8e7PavQSUdXhcFL9Ek1LHKvKS2v0e44HlL8tv2TglhlJdXNp/JKl9X/M6rDooThiaclzzlHM3XLCKljXOvRc/VnzvgnFfh5NSTeOf6q6p/wCZHSx4zpmr72HztP8Akz4n1fR2Tt5cvHyl/n7Pr/TdvC9fHj5eNn8/dvOK6WOKUVFSi5R5pQm1KUHzSStpLqkn8z512ngo6mXL4qMn7tbnRavtBp8cfyS55eEYXXzfRHGavUSyzlkn+qTt+Xsj0/07p5zsvZePjMcPru3heE4Tl5XXixMbJZ9t8ohABRoQ0ShozRY0SikQmFrYXL5JHjPF9qkbbHhU3Xie2TRRR6evrl467TjvHS4RHhsdJn+M+I+N5ofC91/wuXa+a9uvNd+FVuRwOOk73/1HxHwtx+Kvkrkvaq35+vLW/wBTa6DsjmzYJ6mEF3OF1mla/LsnSV23TXTzRia7hlpRgqhF/lj6+M5ecn/sg+HuOd4/DUdooaR6rL/Z3efCJrue9vnrlV3e/wCrmq96o1kUbfJw9x6ox445Rb5W1acdvFNU1/IPgGM7hP8Aw17v/U+n/gtXxma+vcbe3eRv9j5rpcfJBR8uvu92dF2L478BrMeolbx748yW77uXVpeLTSf8J4eXuu1n6Ma/XOXfZOf9feT5r683M7+tnimfQu2vYrJmyPX8LSzYNT/fSjjaclKW8pw/zRb323Tb+XN8N7F8RzzUI6XJBN05Zk8cI+rb3fyTYLC49kz20Vn0ziWslwng+mx6X8mfXJZMmRfrXNFTlT81zRin4L1MHt8tJotLi4Zp445aiPLLUZVGPeJLf80uqcpO6vZL1Rm59K+M8IwfCtPVaBLHPHaUpJR5Wt/GSUZL2aJg8uXllvrXC6PjWqw5FlxajKsid25yfN6STdSXozsvxFhDVaLS8UjFRyZksWWvFuLkl68rjJezOU0XZbX5sixQ0mdSum8kJwxx9XKSqjqPxH1GPTabS8KxS5paZRyZmvBqLir8m+aTrw28yYXKzy457bvtJw3UcQ0elfCMkXp4Y+WeKM+Rt1FRT8G40003saHhGp4rwfnlqNLmyaaUWpQnLmxRd/r5o8yjtafRO/QnjXZXNpMeLV8Fy6rJhzR5pyxS/vVe8XWNJuNejpo2/wCHWs4tkztavv3pFCXePVRap1+XllNKTd+6q/QoeuPxZ/1hfhBNPWahxXLF4rUevKu8VRvxpbHK8d7SanVaiWZ5sqXM+6jCUoxxxT/KopPZ1W/idj+Gbx/2lre4rueXJ3VdOTvvy16VVHzNsnwfHLzt/wBPrse02ZcCWudPVJPTRyNJyTeVY3O/Ooxl6uKPnHCe0OqwaiGdZ8rlzpzUpyksiv8ANGSb3tWdTJ/+2F/+/wD3DOAxv8y91/qVOEn6vt8vo3b7g0M3GtPiWy1ccTy1s3U5xk/fkil8jE/E3tDljqP7P00pYtPpowg44m480nFSptf4VFxSXv6Vn/iTxD4Xi2j1FWsOOE5JdXHvZ8yXrVmL+IvZrLqMq4lw+Lz4NTCEpdz+aScYqKkordxcVHp0adic+N/t38NL2E7UajS6vFjllnLBmnHFkhNuUVztRU43+lptPbqrNrrdFpuH9osfecsdPKSzxvaGN5ISSvwSWVX5LbyMHsN2O1WbVY82ow5MWn0845pyzRcHJwfNGMVKm90rfSrK4vqdLxfjfJlyyhpp1psWTG4pycE+V3JNVKbkl53Eq3PK5+G07cdk+LajV5M+FvNhk+bCoZVHkhSqKjJpJ+qu+ppuN8c12LQPhvFNJkbbTxZ80pc8eVqSSdNTapq+a6ZPGOEcW4Xmli0stc9OpPuJYXllCUP8PMobKVbNUt1tsdLLPq58B1UuNp83/wAV5oqOZuo93caTvn6Wrq72FA/Hy+SNksbZLOkOkxMbJYoJMTGyWJCYhiKIGSMrKRSIKQVXCTTtdUbDHk5/0rdbtM1qKhJp2m010a6nXq7bwv5jpx5eLc49RmxRljWXJHHkqU4xlJQlXTminTr1PJ6qrW9+Zgz1Mpfqd/uRzHovd13/AAt5aypNzf3seGTDFStdV/KyVIpM8vb2yzOKSLTKTPNMqzyYettwftDrNHa0moyY093FVLHfnySTjfrRs9V284pljyy1c0ns+7jihL/mjFSXyZy9jTJjZPw9ZTbbbbbbtt7tt9W34syeHcRzaafe6bLPHNbXB1a8mujXo9jCsdhwnUZu3vFJx5Hq5JPZuMMMZP8AijFNfKjnJzcm5SbcpO25NuTb6tt9WedhZMaST03HCO0ut0a5dLqJwi3fL+WWO/FqM00vdHvxTthxDVQePPqZvHLaUYKEIteT5Em16PY0FhZsbJu42XCONanRylPSZXjlOPJJqOOVxu6/OnW5r7JsVmxWyfGtT8N8F3r+G5ufu+XHXNzc181c3Xfqa9SrdeG5NisuI2HGONajWTWTV5XknCPJFuOONRtuqgkurZ68H7S63RJrSaicIt24/lljvxfLNNJ+qVmosViwbnpveL9r+IauDx6jVTeN9YRUMcH6S5EuZejs0LBsTYpE9Oj0PbvimCKhj1c3FKkskceRr+KcXL6mr4zx7V61p6zPPJy/pUuVQj6qEUop+tGubJbFIOQMkBCiUMljEISZLGxCQgARRAxDKxjRIwrFIZJRCUNEjJYqkUmQhhxZVplWeaZSYcJdjsix2HF1dhZFjsmLq7CybCzY2qsLJsLNjaqwsmxWbG1VisVisuNp2KxWJsuDp2JsTZNixDbJYCZZEDEAhCCWxskqBiGISEAAVAgQIEVjQ0JAmFVIaZKY7IqrHZNjsiqsBWBGVY7JsdhwtVY7IsdkxdXY7IsLJjaux2RYWbF1dhZFhZsbV2KybFZsbV2KybFZcTVWKxWKzYmnYhALE0A2r9PqIG9/T72KgtX6fUS9egWr9CU/PoVgn5iXqCfmC9SppL1BAmKxQQIaEZgmNCTBFY0xpiTBMzHY7JGmRlWFisLCWrsLJsLIywJsZFUBIzYuqsLJsdkxlWFk2FmxlWFk2FkxlWKxWFlxjsLJsDYx2IBFTTFYCsrGJv0+/IVg3v0+W9exUF79Pl+wkwv0+W9ewk/vw9ipoTBMExJlQIEwTBFYkwCxGQ0wTADMaYWAGYJhYwIosdgBKwsAAygdjAiixiAjGAAZhYWAGUWFgBmFhYAZgAgMgCwAzEIAKwBv78PYAKgve/6Cv78AAqEmCYAZgmJMAKgTEAGZ/9k=;" vertex="1" parent="Lif8JBEafslfNm7ranTe-1">
          <mxGeometry x="321.33" y="30.8" width="122.15" height="68.4" as="geometry" />
        </mxCell>
        <mxCell id="TSmfEReDqsmMl8i93ZQt-3" value="" style="shape=image;verticalLabelPosition=bottom;labelBackgroundColor=default;verticalAlign=top;aspect=fixed;imageAspect=0;image=data:image/jpeg,/9j/4AAQSkZJRgABAQAAAQABAAD/2wCEAAkGBxAHERASBxAWERMSGBEVFRcYFRUXGhUQFxUXFhUXGBYZHSosGxolHRcWLTEiJSksMS46GB8zPTksOCgtLi0BCgoKDg0OGhAQGi0lHyUtLS0tLy0vLS0tLTUtLS0tLS0tLi0tNS0tLS0tLS0tLS0rLS0tLS0tLS0tLS0tLS0tLf/AABEIAMgAyAMBEQACEQEDEQH/xAAbAAEAAgMBAQAAAAAAAAAAAAAABQYBBAcDAv/EAD8QAAIBAwEEBQYLCAMAAAAAAAABAgMFEQQGEiExB0FRYXETUoGRodEUIyRCYnKxwdLh8BUXIjJUkpOiNMLx/8QAGwEBAAMBAQEBAAAAAAAAAAAAAAEEBQYCAwf/xAAvEQEAAgIABQMCBQMFAAAAAAAAAQIDBAUREiExBjJBE1EUFiKBwWFxoSQ0QlJi/9oADAMBAAIRAxEAPwDdJfloAAAAAAAAAAAAAAAAAAAAAAAAAAAAAAAAAAAAAAAAAAAAAAAAAAAAAAAAAAAAAAAAAAAAAAAAAAAAAAAAAAAAAAAAAAAAAAAAAAAAAAAAAAAAAAAAAAAAAAAAAAAAAAAAAAAAAAAAAAAAAAAAAAAAAAAAAAAAAAAAAAAAAAAAAAAAAAAAAAAAAAAAAAAAAAAAAAAAAAAAAAAAAAAAAAAAAAAAAAAAAAAAAAAAAAAAAAAAAAAAAAAAAAAAAAAAAAAAAAAAAAAAAAAAAAAAAAAAAAAAAAAAAAAAAAAAGQASrm0G19CztwinVqLnFPCX1pdp55tnS4Nl2I6rdoVx9I1XPChDHi/tHdrR6ex8vcsGzm2FO8zVKVOVOo84+dF4WXx6iebM3+DW1qTeJ5wn9brKehg6mrkoRXNv2Bk4MF81+jHHNS7h0ixg2rfR3l503j/Ve8Oiwenecc8lnjpekZ5+V6dY7Yyaa9D5h9Mvp6sx+iy5Wi8ULxDf0M845p8JR8UHP7ejl1rdN4/dpbTbRx2f8l5Wm5+U3+Txjd3fxBY4dw2dyLTE8uSC/ePT/p5f3r3Bp/l23Lvd90ukWjJ/G0Jpdzi/cHm3p20R2sslovmnvCb0U8tc4vhJej3CGRtcPza8/rjskiVF4a3VQ0VOdTUPEYJybIfbXw2z5IpXy1bDdoXmjGrS4PipLzZLq+/0iH33tO2rk6J8fEpXT0JaqUYUFvSk8JdpKvhxXy3itY7t+52KvbIqWoScXwynnD7+A5Le1w3Nr06rR2RYZwAAAAAADIT8NC/at6DT1qlPnGMsd0nwT9ZC5w/FGXPWk+HEqk3Ubc3lvLfiRD9ErERXlCz2HZOneKKnHVxjUe98XhNrDws/xZ4+AZW5xK+tfpnHMx91n2M2YqWWpWnrcN4UYNPKcecn9ntJY3FuJU2MdaU/dVdu7zK46iVOD+LotxS7ZL+aXrDa4TpxhwRMx3lAaPR1NbLd0kHOXYlkho5Mtccc7zyh66+1V7dj4bSlTzyyuD8GHnFs48vstzeliuk7RWhVo9TxJedDrTEvG3rV2Mc0stvSfUVeGilTeVJVWvBqm0GLwDHOOctZ+8fypdt0UrhVhSpNKU2ks8svtwG/myxipNp8JK+bL6myxU9Soyg+G9F5SfflJhU1eI4diemk90bbdbO31IVNM8Si0/yfcFrPhrmxzW0dnb9HqFq6dOpT5TjGS8GskvznYxTiyWpKidJN63mtLQfBYlU8ecY/f6UQ6fgOl01+tb58IjYS9fsuvuVninWxF/Rl82X3ekL3F9P6+HnX3R4dls2u/ZtaFRreSzldzWOB6cjpbH4fNF7R4T20e0tLX0XS0qf8W622sYSefXwDZ4jxamfD9PHHlUw5mYmPIEAAAAAAZCWvcNItdSqUqvKcXHwz1kPvrZpw5IvX4cevGz+otUpKvTbiuU0m4tduSHfa29hz1iaz+yKTa7gtrfsVtLV09anQ1U3OnUaisvO7J8I4fZnqHhj8S4bjyUm9Y7wq2sz5Spv896WfHIauH2Ry+y/dF25uV8Y38xz27mHj259hLm/UMXnpmPCZ28cFoqvl8fM3Pr7y5d+M+jIln8F+p+Jry8fLkJDuFu2wz8Dte/z3J+rFPHswIY/Dv9xn/vH8orY//m6b66C3xKP9Nf8As6XtpurQ6jynmr+7eWPaHIcJ6vxlelxsl3jrNuuatNspVa/NQxFedJt7q/XUR8OLzas7HELUjxzcxSqXWt51SrL1ykw6/wDThx/0iGztDaJWSs6dR5WE4yxjei/zyvQHy1diuxj6odI2IvX7WoKNV5q0sRl3x+bL9dhLkuMaX0MvXX22dF2Ko0q1afwlJySTgn7X48vWTD3wKmK2SfqefhsbdUKVKVJ0UlOW9vYxxj1N/rtD78exYqzWa+VVDm/DAQAAAADIS1bnrFb6VSrV5Qi34vqXpeEQs6mCc+WtI+XOLVt3qNHw1aVeOeGXiS7t7s8UQ67Y4LiyRzpPTP8ARFbS3tXypGcKKpYWODy5PPNvCyF7S1J1qdM25sbKaOWt1dCNNcpRlLujFpv7BJv564de1pb+3dnlb9RKpFfF1m5J9k3xkvX9oVuFbkZ8MRM948oDR6ypopb+km4SXWngNHJipkjpvHOHpcLnXuLXw2rKeOWXy8EHnDr4sPbHHJ7WG1TvFaFOiuD4yfmwXNiXjc2a4Mc3stnShTVGGijTWFFVUl3JU0gxOAXm85bT94/lS7ZrZW6rCrSScoNNJ8s9+A382KuWk0t4lJX3ajUXuKhqN2MFx3YppN9ry2wq6vDsOtM2pHdG23QzuNWFLTLMpNLw7W+5CVrNlripNrJ3bW5KpKnpdK80tNFQ+tNLDf3evtCjw7BMROa/usrtHfg1KhlNcms8PSGjaa+Jfepq1a+HqXKWOuTbx6w80jHX28m9sxd3Zq8KnzX/AAzXbB8/f6Ar72rGximk+fh2ijV3lGVCXBpOLT6upo9Pz60WxWmPmFhsNglelKpqKjSTwutt+LDY0OGW26ze9uyNvVtdqqunN73BNPGMxf8A4wob2nbVydHmGgFEAAAAGQlq3O307pTlS1abjLHJtcVyIWNbZvr5PqUUzWdHKb+RV8LsnH/svcRyl0OL1Fz99P8ALx0/RzNv5RqIpfRi39uB3fW/qHHHtquFjsVCyRa0ceL/AJpPjJ/l3EsDd4hk2rfqnt9m5rdHT10HT1cFOL5p/rgFbBsXw366T3Uu4dHUZPOgrbq82Sz/ALL3EcnRYPUPxkq8dJ0cvPyuusdkY5b9L5Du+mX1FX/jVc7RaaNohuaKG6nzb4uT72S5/b3cuzbneWhtPs5HaDyXlKjp+T38YjnO9u9/0Qs8O4l+Ei0cufNA/u3h/Uy/xr8QaX5jn/p/l60ejqjF/HV5yXdGMfbxI5PM+orfFFh0Nho22nOFsXk5STXlP5peP5cieTLy8SyZckWyd4j4Vp9HMHlvUy4/QX4hyaseouXboW2z22FpowpUOUeb7ZdbYYm3t3z5JyT2e2t0kNdTnS1CzGaafvDxh2cmG8XrPhS30bw/qZf41+IN/wDMf/hbLLb3aqMaUqjqKOd1tYxHs5iGHubUbOTriOSzWS/1LQpRjFTi+OG8Yl3MnmtaPFL6sTWO8NO6a+dzqOpXxnkkuSj2BU29q+xkm9mmFQAAAAGQnn3AeAAAB2Ac+wAABPwBDAO4BkAAB5AcwHhgDIADAQAAAAAAAAAAAAAAAAAAAAAAAAAAAAAAAAAAAAAAAAAAAAAAAAAAAAAAAAAAAAAAAAAAAAAAAAAAAAAAAAAAAAAAAAAAAAAAAAAAAAAAAAAAAAAAAAAAAAAAAAAAAAAAAAAAAAAAAAAAAAAAAAAAAAAAAAAAAAAAAAAAAAAAAAAAAAAAAAAAAAAAAAAAAAAAAAAAAAAAAAAAAAAAAAAAAAAAAAAAAAAAAAAAAAAAAAAAAAAAAAAAAAAAAAAAAAAAAAAAAAAAAAB//9k=;" vertex="1" parent="Lif8JBEafslfNm7ranTe-1">
          <mxGeometry x="40" y="120" width="70" height="70" as="geometry" />
        </mxCell>
        <mxCell id="TSmfEReDqsmMl8i93ZQt-4" value="" style="shape=image;verticalLabelPosition=bottom;labelBackgroundColor=default;verticalAlign=top;aspect=fixed;imageAspect=0;image=data:image/png,iVBORw0KGgoAAAANSUhEUgAAAPcAAADMCAMAAACY78UPAAAAwFBMVEX/////aEkmKjgiJjVARE8ACyLT09YLEyf/ZkYaHy8YHS7Q0dOGh43/YT96fYT/ZET/Xjrz8/QSGCqfoKX/6eQAAB0eIzL/dFg5PUn/+Pf/i3X/8/H/2NH/blD/xbv/4t2RkpiAgonq6uzExcgrLz7/mYb/k37/el//clX/hGz/o5L/v7S3uLv/zsX/uKtdX2hNT1pqbHT/rZ6srbEAAA0AABX/sKP/oI8AAB9vcXq8vcEzN0Tf4OL/WTOXmZ//0suwK9fxAAAGG0lEQVR4nO2aeV/iOhSG22agi4QubLIpFgHBBYQ7jgo63/9b3bbpmrSgd2QZ7/v8BUnaX97m5JyT00oSAAAAAAAAAAAAAAAAAAAAAAAAAAAAAAAAAAAAAAAAAAAAAAAAAAAAAAAAAAAAAAAAAAD4X9Juf2TQ3qdxYHqdfn9U3zHofiK3lt2DzOdAjCxT0yhdblvP3sQyZY1qvYPNau+MqRxA5duiIfWxp9pHo99G+IUlh2jWJFdVe0bNaIx58112+Y0mx5jWWNzmFzJNRsjWxRHmuAfqlpzG5Ld5b2ppmQHTI030i7nM6va2eT+1ot2RZWa7tdbx5vqlyBonXLOml2HfBaVcp0yfdt7RHia/3bP9zPrPueUX3N/mMxao6zfcansPaUcIt+8e9XX4213Nn1/2O/s/oMUvuJzEtDqvmz5svdfdo6HqzR/+T7u2UJ2mXt2/gP/IvbjgibHfZg1da20NY3ZDVxSFBLrP/ml6v4t128O7r9Xxaab8oobGPvJNup+xBut+651sQ4l1l0tKsW5vN5CfV1+u5HMILj2yad+on9ILbna23+mDut25quqKUdmDlk/xS/Da0fK2epmHYu04vHxQ99mz33V83V0hlqW2eaqLznbc6KO61dPQLT0UWLqvPP1z1zH0b9OdG8tEqy88r0X8dbp7xQseY04KLnZXlWqlVpYKddt3lWp18GpHFzDd+pXtetgFdz0M4yLXllruy9wrN/Nn1dANp3Q+LNB9VfIG6IaqDkKNTLfSVD1+vh9MYx71nYZe4NRqJV1hkMaVrQu6r9xrJxygOEo5uCbUzdpqhxOZxxO34JRy2YyZ69TeS4kERa1e87qbLz+ayQCiBseUU9Jdz+q2LqRppsUc5V01jGTrhk48lQqvWyHE7zRC8YT4ph7pJh7H1i1NtKxsSersrrOck0CAQV4qlUWJKKJuTzV5eR88Oky5M5Bi3b5soh5b9yhl15SJ7KSacr3aK9PmVAOHNSQkR7fzGHRuFswPlOyUPw84lMACZsnqRjWV33SH7nmwiPpj+HfjiLqbi7DTXgdPRb07pfgtceu99Fu6adPP083ClqK7UUNFiGOKGhdcVk70kE5Kd3Z/e8K7rbRHpznJ2hlz2fO4oazyusk67rRDb3Zaunl/vrzMyM49gt6x+Q/ihpz4/ZgM/xEYumOflO4ZH78tLpOhoqEzy3VWSYuwv/WUOOYNVPeUdF/m1lwyCy4Wzmu7dRsnrruzU3dOjSlc71QEJsJ6p85jC2bnp6Q7t7bIofX5muJQ5aS5Dq87DmMeQXgn+gn5tXb/I+dv4WSyYe77PG54Ffy5osd5SfIgmNs3jl1XlKRlyqlpxRZP+fJamIq8Rv/ZDs7oTnZ/VY+8P8tvyEI6Mum3A9p0ynvyGHPMXThgAtZh4rJSxXyN6BvWyYKe0thE4U5xjl1AH6d1t6QLrbC+yr0f34QFBMVXYFfCjDybnxNn5Zm6OwiHBknOgh1S1JfX4WooTOdQZItMb12p/Ys/fCcPJUs1zMhV53zdMJS8c4m3rur6usRSWuU5SFtrYSlCV9WfxzuPTTIig9z8spNv7Bb3esw+j6oKgbNeC3UHJRhAokegMh9uk7jleOdv/oUoDQor9/08Y9c0ruriKlGZyd+7wzWv2xhUkooMKUVvR4cNkuiuvlfsuXRo2vxLgygxW+YZuxDL7HkprLI43hEzqCWw96Hl56CcUpEGoY17A5K1fTUcEukeuu/vh9fNF9Y8bVOWoNQ7b6KxC7FMep03SqVS49qvll77KEGAKivnHuuB5/2udG9EYz1wU1e5g3VwmefUh+6qdnhrFzI1820UGXOvJfTmlVXt8lnZFZtTuJuNWFexN+Udl+0R/mVo6isPnweTMwft5lgz/Vq6Wd1U5uqH7Vn2yx4hd/lbSb/1N62lOKDeSSu3fh9+inshyVpyv9oLhkziaE6/yedrHk9v4cbO/0oz4P6GKaetb/RF8gOlpmn1t3+A+SBTk1qdbyTb28HL6fR21/e27Yfx7Nt8jAwAAAAAAAAAAAAAAAAAAAAAAAAAAAAAAAAAAAAAAAAAAAAAAAAAAAAAwBb+BUIMadI6xhkgAAAAAElFTkSuQmCC;" vertex="1" parent="Lif8JBEafslfNm7ranTe-1">
          <mxGeometry x="120" y="30" width="84.76" height="70" as="geometry" />
        </mxCell>
        <mxCell id="Lif8JBEafslfNm7ranTe-3" value="Orchestration" style="rounded=1;absoluteArcSize=1;arcSize=2;html=1;strokeColor=none;gradientColor=none;shadow=0;dashed=0;fontSize=12;fontColor=#9E9E9E;align=center;verticalAlign=top;spacing=10;spacingTop=-4;fillColor=#F1F8E9;" parent="1" vertex="1">
          <mxGeometry x="180" y="160" width="140" height="360" as="geometry" />
        </mxCell>
        <mxCell id="Lif8JBEafslfNm7ranTe-4" value="&lt;font style=&quot;font-size: 19px;&quot;&gt;Tech Tools&lt;/font&gt;" style="fillColor=#4DA1F5;strokeColor=none;shadow=1;gradientColor=none;fontSize=14;align=left;spacingLeft=50;fontColor=#ffffff;html=1;" parent="1" vertex="1">
          <mxGeometry x="180" y="120" width="650" height="40" as="geometry" />
        </mxCell>
        <mxCell id="0QRVZLjizYABk1ugPUcg-12" value="" style="shape=image;verticalLabelPosition=bottom;labelBackgroundColor=default;verticalAlign=top;aspect=fixed;imageAspect=0;image=data:image/png,iVBORw0KGgoAAAANSUhEUgAAAWkAAACLCAMAAACUXphBAAABv1BMVEX///8Ax9QArUbkOSEBfO5RUE8R4e4E1ln/dVcMtv9OTUxKSUhIR0ZFREP4+PhCQUCIiIdhYF+rq6qSkpHf3t5sa2p0c3O/v7+zs7MAcu319fVWVVQAytgAu/8AeO7Y2Njn5+cAs/8AqTrjJQD/clJcW1oAqDTNzc0AdvUE2k7jMRSYmJc8OzmioaGxsbD/b00InfeBgH/sLgAGlPUL1uMBu0zm8v31wLv41NDnVEH74+DlPyjsfXH+9vVX1d/pY1N12+Pvk4m87fHyqaHvUzmU4uman5mq6e72d1lsrq+cxfcP2tkExHwDzVVeovJ06/S51vlgxYJGvW/O4/vo9+7F6dFPmvLpZ1nsgXXyrab2xsH52dX5pJbui4D/nIjb9vj/j3iecox7h6+JgKSxY3LWQjI7peHQRz2xlYqjbIF7qai9V1zIi3rvel5Jw/8+u8Jkk8PXhXB51P8EifIKqft9x/u4k4aUUlWNQDajPzSNo584cY5kTUkUcNRNQjUHmqQvho0HjslNNzUBi9gDwYQWmkYDuZEEzWsDrqYN08YCmsQDo7Z6sfQLzLF/0Jx25ZmU6rGv78Xb+Oa45MiT1qpBpVQ/AAAS/ElEQVR4nO2djX/TxhnHFQeF5PTmdyc2sUUSxyGxk7phAQKU0tKVdbAVFlpg67q+rHvtuhW6963r2vVtHesCf/DuTdbd6c4+yXZsKn6f9uPIki3pq0e/e+65kzGMJzoq3T137tylS6++euHC7dcuX/7RnTNn7p7d37948WiPwn3mhaPd4QR0YXWT1SrR5uz5c6/evnznzNn9IzmKEzMz7pHsaILa39yclSvgPnvptefv7o8ThAtBf/NJ90EdIkdRfu72nbNj8hQEOgWkjf3ZQah7vDfPvXZm9LSfQaBnRv61U6j981qoA9xXLo82tgnoVJA2LuqjxrhXNy/cHRlsCjodpI2LV2KhxrBv/3Akuw5Ap4S0cfFcTNQI9pU7w++4B/rE8N/1eCgB6tnZ1dnnh8wYeqDTQzoZ6tnVzaHiOgSdItKGcSkJ6tnVK2cT75EBnSrSCVHPrt5OmIewoGeeGe25TLkurSZCvXk+URry7Ex6SRuvJkM9u3om/r540GkjbVxIivr5uHsSQKeOdHLUl+PtRwQ98+xYTmeadTSoI6BTSNq4nRT1j/T3EQU9880fc4nqtbGjloBOJWnjckLUsz/W+/4XJKBnXhzvOU2pkqLe0UItBT3z3LhPajqVEPUVHdRy0GklbTyfDPX8YNQK0DOvH8VpTaOSod6Z3/lJ/+9VgU4v6WSor8wPQP2iCnQahsZVupMA9fn5/qjVoNVF00o2W0ly/C1gFpN8bgI6kwD1GkatqqKqQatJVx3L8qoJDn/b8RJdoUkoAeodSHp+7V056j6g1QWmRcc0ncUER79oO48N6QSor8xj1FdlqJ/rA1pNugRME+QSHPxjRdq4Gxc1IS2N6r6glZ3xomcVCpbHOq5bbPjhUpVbMvxGkVoNIe0r1k6dzsZETUlLoro/aGVnfMvyGg3P2iJLix7wC7bneU0arsWyA5cAXW1sm3DJKbXwtrbT2gZw2Qy8p5VDa8tT2k7GRB2Qnl+b51EPAK3sIgLQNIwmMEkS2LFBzYZsLdDG+Fpty7FMx3LKeHXZA3ClDdodA5E2mw7ZtkM+3LY8EzhWuzUeVMMqHuoeaSGqB4FWdVwqjp03jLztETp52wTNSrFRcEzHhz5iAqviun4Z4DQj74FaxffzjtluYNJ42y3HxObTaINcw3UrNrCm1EF+GGfEPCTNRfVA0KqOSxkgor4DungRkcaYtiwbBqrvkUSu6lloPQAOXrntWFlCGi92bKtgoKbVxovw4nXGhGpY7cdAzZCGqIPnCQaDVszKg4ixL8Cg9dFr3kYhTlaU4ItLL5CFlmDjmSWLTYBJW4Ro1UG5S9UJ1yZJZY5Eg+eyS0nPr60R1K8PBq3ouORppkZMhLERZN341W0tbnVzAJFuOfY289kwyzNBDZoHbFaLDagiDO6p7frro+ZIU9QaoFWjiAFPCKuJXiBpmjmUgAVxVbMoEYHpBSJdcbgEOiRdQ6RbjmnhbT0AEvU5j0ZoLvvm008P5s2Thj3zfS3QinS64Zm1XBMqVzM92MiJpH1gO7VsvlIEGqQ9s5mjKo0V1nC6OLv5xptvvb05CPaOQHp+rXFCh7Q8yctapkVlYpcN3QPTK1s2yZVt6h7ExA0f9U8E0tA9prUh5OW/swy18OZPn+5Lek0kPb/zng5paZIHm7JalqqGc7O8TfswuKmsBilJw0OkfY8uuu12OUK6StpQ9LX+1No01N7yAtbywlt9wzoCen7t2zpBLd3pIpOPdTA3mOXZ2D66lrMdwith94BEHWQxxpZtb0VIw4+QlLDVbnfHB2pY7S2fXKBafudnq0rQ5yWkf65BWp56lGhuh+TjsEX5tLVVWSxZAOXKZcvqthqVnI1bRKPSNq1Oq9K18edE0sU2sPPFBuxmTmsnEcoNQSO9rXQQsUHUjelnZXsttu1yuFSy2kVIGpQ8x3EA6VJXaw7OJ3KmhVPkrbZlOw78H63c9oL6NLAAeql4Fuqr216SGuzRSAC9sPyGCnWkQYQ+/R0N0tL6UrFUYoKvVSoVce5RgflwLUtSELfTtK1cxyiUiM20ujXbam756O8G+gBWtlTAr34WrS34Y8I0vETQEPVbCtTRBnH+6mDO+sO1JMtz2RbNFZo3cTnO2gkrChqiflOOeqQNokRhPv1NlAS0KqolNq0V0tpzp7/RpH8jAw1R/0KCOmrTO7/UCWnt2Y8dr90Y58lOUgrQEPWvonl11Dt+rdVD1J5V0+hmp7dkMZyUoKF+KqKOZtPv6nBOzYPM/dQP9PI7on9EbHrtPa2QTt0jLlH1Ay1JQMQcb0cPdEqnTrPqDxqifpvzD9E8tPosSOmd/Eg1CDRUP/PQBp1689AAvfzbp5XmoenRT8xDBzTvH5x5rL2rDXpS5lHFo4oNkjWivybUUX+fgl7GAwBKvbMq7bbs/G5GG/REzKOVbdp0VBGhLrc9rz2ZMS8Iennh5P2ndnfvQe3uPnX/JBoGiAZ12CtnQevUpAON4AGXDh4d1J/v2Mh5FjCJ8Pikg/+aRFC/v7Bwf/dYvV4/RoX+vAd5R2gv/2xTbA/Xruq2hUhav+tR7RSQtuVr/TZA8nTPruIFmAPSNvrLmQDp909CzMeiQrifus/B7jWKvfZw59f6zjGjWfMoOXjYti0fc/U9zEx3FkexbTJqT5L0+7syzCHt3fssalL/uJIooGf0euJFj2IBUhgxSedIRDu2WYMveFhnQqQ/qPcBTWizsEmnnLSHazu/jxXQmiG9ZVHS8rnn8Ui38NbArDC1qsmQ/mBpAGcK+6mTy2FQn6cph35uR6Vzdq4Z+Cooy9YHPq1HKosvm+Wz702E9FdaoLGN3LtPg3pzE4X0zru/PBEXtFZIVwLzgO2XL9ugUypDaeYeTXTZgjk4VJMg/ZIuaBrYMBlZ/sMf/wQ5X/1zTOOY0f1BsTIg9zsiNPQ8pCrO6NBcYUYTIP1yHNCY9e7CXxzb/uvVb8fnrJlLExu28ggHmQg5jKip81SPnvQPYoJGrP/2d5h/eR8m4Kz5OzUEcdnAUe0NOysG5zHiDOojJ+3eiw362DFM2vlHAtKaP0aIjRVmHTgDCaabJ9Z0kP7eoPROEtIbH9m2Zf9Ta56jIL3SUoOYh0uzanvIgcSpIB3fOyDna6cytuN8ODd3Oi5ozYIHzsrwFNMSDu4h53rFI+0WW4vb25WWP9xORcX2jo2PPzl1/PjxzL8yc0inYzmIZlm6avWqE+jBZunztn65VCp1q/wysZlGPosW0EOI2RIWyc1LnICUdHWxbHsObO8dzzO7fAPRQB/Lix/Iyt4MDyZQrAQPcb73KeJ8/Homs/LJXFzWuvV/Bm8V24dkbk3BQR2X8BSzaLkN8+tK07Mt1Kuxu0aL9G9oJwhwMmWk85bDVKKs3tOmzC6EySdbnuzNyJZuPM71+uenMOjj38pA1N+dm4sFW3ughbWM0EgE0hbfGcHbwTa02yvagS560KW/eNJ+U9weeN1wCxwA4lMGODsSj4806Gzr8lKs5nDjo88IZxTSYVBrwj6hPWuJNIP0QHHJApgRP5WStivdkFVs0kU7CH4Ltvj0b7vU28SX2D05VjxZO5SP70muihAvoD+lnElIZzLr352b04V94rT+j+Ph1A4Ek/hJfERSailpULJCm3C6RrHtINkUK6cI6Sp1FNsrbeU7hZxHalxWOC6DK4J8V7NDNuLtbRvtkGvG47j0xkfXe6CPY9CZlWtzgk4raJ84PRfjVwjxCfe6Kx07EiBK0uRWdpq4JoJaxEYFKY/XNSucIi0iaSOBtU3f8wv0avSsoRMhGJRj+YpBOXJFYiQeG5+HnGlIw6D+QkSNafO4T5w+Dd+NAbqC7z0zWPRlRQsVafhBuyNuqpflbeP9gBzz6Rb5zl7ThtN8wD4xE1TRuS+v2uI7+rl0/dg1BjQNaSQJaYY4Zoz1/X5oBeGIYIKkLCnEKUmDmm9EpEWa3BM1rpNE69q9G6qG7xnmPshTY+IKjjhUuCjX7h4ufXydBX29B3rl0z6oGcUBTWKYOXIS4zVhMwVpvgZNpUN6kexWTNdszoXxTtkyDHYcMRLwobDOrZ3ibXzJcg7Ng8v0RgWaFpeY6QGulIGcNPcUeU86pPGdE2kOsBGE8Ylj3Cr0VpNspAv4AyZ+z3yLbrV04988aMY8MplIozgs6F5xKVRBVmaSk5b/jIcGaYI0OpJWsLjrzjchOMmAzu5xN2FDuBza5rHxoQD6Okt6/T8jBk2KS9z4IK038RAVWZ70OzVIN9gcnhHJyHv77gLOGJB5wIBHwRHeTThDYS1G0zwioFnz0PGPeKBpn5AP4FwkzBWkuUgKpUGaNAbRMQfaahTZzXp7xaUCuA6xDS9yTmw29cwjYh28eQzIP+KDrspMeVu0bkNFOtprR9IgrcjaDRdwx4MPr3ckqBVFVwd/f5CHkg4imwp+pWMe9Y8ioK8LoLlO+bCgaXFJiK0qnwFgjZg03y9lVOO7qGW2ooEWcB0E2Udwz+Gw525AnW5L/Z7IWTSPAVYdFzRJmyLJczdaxhkHadngjtBAk442WcQBgMMdfTq4IbpiB3FPxzw2rkVCOmIeiq5iMtC0uOQLb9MeBPvWiEkXVDYvtBHYG+gVQdFL8nzcnpKRIWw3nNO9rGEeS1GTjphHv1YxNmjlTYx7JdzI7YRIk2Uygw1FL91jrWcfOCi4m1LLpq9rmAeWFHV80DTpz5VFNU3xCoyFtMQ9RNKdnmXgkSHaVmL76AZ/8ZOBNGx6KZLgKUlLUWvSZURnLoGI8Nucq0zIp2m/BO0Hp9qAeRd3AlB0c6WDPY2Qrn8WBS2xaRVqXbyMyszQkkTsTTnqLE9hW27Et8wgOUJ77PkNKn6grYqeeBgadbz6x5KQltk0kdgsauMN5XtywoFYWCMmLUvZkWiCyeT3hcAeHHYFehfdEnlb2FxnXKv+pb55ZCLJnjZeRh1bYR6BfzCnMGLSpNcdnavdiCRDpMlbxK+hTZDaUzCcwH6DRtGjLsk8+pDOrH8yJGjiiaBZkgmTZpKDEZP2FWPw0ZmBLi36ceZB/NlrVZkkkEqjQZS6hxo0TPYy/xkKNMmaFbPw8kKVc8SkaZE/8nlSxODQkW5UtQa4Y8X2sYVvDW7Q09XJ8TY+1em3cGFNWH/xQHrCg0TKcYqZpSTowiRg1KQLpOoq2EdL2CsS7m5bpJzqcluCHL0KzNY6A1v1e3v/HVheisT1euZaZn09CWpSXFLOli7zna9RkybPHAl9F7cGovZNGkkx1t3ehG++TqVRyKsf2zMMEbU69RCA31Dw6qNF+dBsIOotwepRk6YZpsOVXMpW9L2g1RONLhgyFgbPB6ceGHQEtS7pzHp81Dnp+FIokxvJHTlpOsztZMOZNHT2iDiEuR0M0zrsu60gReWfFtFIPfbIljxqbdLxo7rYrz1EIjWR4LRHTtrIE1SWVWj51WqxEsw7E0cwe2k/31C6lL+wn92BIb0XbPq1fFh85KjJY3FAvQF/KUZP2sjSuWWW4znwP+oRkn/1qEmnT/JrusQ+hIZGN6KRvpbMqdFCfVNNLSrS7VWgIiJD/rTHPAbSRsGLVAOA7J+Xoj0sYWSzQi4Un5O7gxrEPXZrBnUc0vFQt1TTd8VToY8gxh9HFNJH2RP6FeAAnnNOdkANkqcIVRKak/CuPmAYoL7Hf0eIOoZ7xERdbHueN+C3i9G/iePRlHcRbx+6eh4vy59PrKJ/aqctFOpK6FcnxCnw1XyNzr4GAJpISfG8YxftLBIVW5JD6J9O138gfvP/TiUiHQu1j37ZpP8mbvgzKPDSwL99ZqW4zKoq+W5X8Usqxe1sqVlr5sqFiurryM6iU0v86CH0HXCJgg5RxyQNUU/zz7cegfql0zLQPdRxSUPUB0d9clOlPkNbctA91HFJZ1YyqY5qdcdFBdowHp5KRBqiTnNUv6IivfSy+kMYdaw07wlqZXW6H2jDuHUqgVFjpRd1ItAEdSLSqUWtmGY6CLRhHCayjxSjlk9BGAwao05GeuVw/Kc1hZKS1gGNUCcM6nSilnXG9UAj1MlIZzJpRC0hvfSS7ocPEwZ1Zv3WOM9pOhUdRdQHbRgHMEN+glpPEdJxQA+BeiV1qMUCUzzQT6JaXwLpuKBhQn4zKeqH4zif6RVPeumrBF9xY/0Jag1xRdNEoA3j0UqysE4XapZ0QtDQrG8mC+tUoWZIJwYN9TBZw7j+aHRnMu0KBwKGAQ31KBHrFKHukR4SNLSQRKzTgzogPTRopIc312PDTg1qOrg1EtBQhw8ycWEnmmD9GIqQXvre6L7xFoIdh3ZKUL8yatBIB49urMSgnQ7Uu2MAjXX4vxsZXdwJ5rI/foKk6+MAjXVw69GDm5j3AOBpQH3vWP2VMe/i4PDhoxs3M+tQKysK6EkehnnM9MrSuEH3dHB46+GjBw9u3LyJ0K6sIPIUPsR/VEcxMbmaY4aj3u3BwcHh4a1bD5EeQaVxZPGJxqH/AyFY20ylDTbUAAAAAElFTkSuQmCC;" parent="1" vertex="1">
          <mxGeometry x="205" y="211" width="90" height="34.65" as="geometry" />
        </mxCell>
        <mxCell id="ezg6KPL9g4I8Iu30A2BC-1" style="edgeStyle=orthogonalEdgeStyle;rounded=0;orthogonalLoop=1;jettySize=auto;html=1;exitX=0.5;exitY=1;exitDx=0;exitDy=0;" parent="1" source="Lif8JBEafslfNm7ranTe-1" target="Lif8JBEafslfNm7ranTe-1" edge="1">
          <mxGeometry relative="1" as="geometry" />
        </mxCell>
      </root>
    </mxGraphModel>
  </diagram>
</mxfile>
